<svg xmlns="http://www.w3.org/2000/svg" width="512" height="512" viewBox="0 0 275.816 275.815"><g fill="#FFF"><path d="M50.262 257.613c-3.355 1.466-5.706 4.808-5.706 8.7 0 5.236 4.264 9.497 9.5 9.497 5.239 0 9.502-4.261 9.502-9.497 0-4.546-3.209-8.336-7.475-9.273l-22.859-26.43v-84.223l80.164-80.173c.45-.451.698-1.057.698-1.687V18.664c4.082-1.071 7.113-4.751 7.113-9.164 0-5.241-4.264-9.5-9.502-9.5-5.236 0-9.5 4.264-9.5 9.5 0 4.413 3.033 8.093 7.11 9.164v44.874l-80.16 80.171a2.39 2.39 0 0 0-.703 1.689v86.107c0 .569.206 1.125.583 1.559l21.235 24.549zm3.795 3.977a4.729 4.729 0 0 1 4.723 4.724 4.723 4.723 0 0 1-9.444 0 4.73 4.73 0 0 1 4.721-4.724zM106.977 9.5a4.725 4.725 0 0 1 4.721-4.721 4.726 4.726 0 0 1 4.723 4.721 4.727 4.727 0 0 1-4.723 4.723c-2.605.005-4.721-2.117-4.721-4.723z"/><path d="M70.081 257.637L46.706 230.61v-84.223l80.167-80.173a2.394 2.394 0 0 0 .698-1.687V17.362a2.391 2.391 0 0 0-4.78 0v46.176l-80.167 80.171a2.384 2.384 0 0 0-.698 1.685v86.104c0 .578.212 1.129.583 1.567l23.958 27.694a2.384 2.384 0 0 0 1.806.831 2.388 2.388 0 0 0 1.808-3.953z"/><path d="M150.444 62.835L69.58 143.709a2.393 2.393 0 0 0 0 3.379 2.38 2.38 0 0 0 1.687.695c.611 0 1.223-.233 1.692-.695l80.159-80.171h56.112c1.068 4.076 4.756 7.112 9.161 7.112 5.237 0 9.498-4.263 9.498-9.502 0-5.241-4.261-9.5-9.498-9.5-4.405 0-8.093 3.034-9.161 7.11h-57.097a2.41 2.41 0 0 0-1.689.698zm67.952-3.028a4.727 4.727 0 0 1 4.724 4.721 4.729 4.729 0 0 1-4.724 4.723 4.729 4.729 0 0 1-4.723-4.723 4.726 4.726 0 0 1 4.723-4.721z"/><path d="M247.37 76.512a2.393 2.393 0 0 0-2.39-2.39h-89.104c-.635 0-1.242.254-1.689.705l-68.296 68.299c-4.716.546-8.401 4.521-8.401 9.39 0 5.241 4.261 9.497 9.5 9.497s9.5-4.261 9.5-9.497c0-3.584-2.016-6.669-4.945-8.284l65.316-65.325h88.109a2.401 2.401 0 0 0 2.4-2.395zM91.715 152.511a4.728 4.728 0 0 1-4.721 4.724 4.727 4.727 0 0 1-4.721-4.724 4.726 4.726 0 0 1 4.721-4.723 4.726 4.726 0 0 1 4.721 4.723z"/><path d="M218.419 93.622c1.068 4.082 4.756 7.113 9.161 7.113 5.237 0 9.503-4.264 9.503-9.502 0-5.241-4.266-9.5-9.503-9.5-4.405 0-8.093 3.034-9.161 7.11h-57.214a2.42 2.42 0 0 0-1.685.698l-41.768 41.525c-5.066.201-9.133 4.35-9.133 9.465 0 5.241 4.263 9.498 9.502 9.498 5.236 0 9.5-4.262 9.5-9.498 0-3.409-1.815-6.377-4.516-8.055l39.08-38.858h56.233v.004zm9.162-7.11a4.727 4.727 0 0 1 4.724 4.721 4.729 4.729 0 0 1-4.724 4.723 4.729 4.729 0 0 1-4.723-4.723 4.726 4.726 0 0 1 4.723-4.721zm-109.459 58.747a4.729 4.729 0 0 1-4.723-4.724 4.727 4.727 0 0 1 4.723-4.723 4.726 4.726 0 0 1 4.721 4.723 4.731 4.731 0 0 1-4.721 4.724z"/><path d="M86.995 275.815c5.239 0 9.5-4.266 9.5-9.502 0-5.241-4.261-9.503-9.5-9.503a9.425 9.425 0 0 0-3.542.705l-23.268-26.901v-84.227l80.164-80.173a2.394 2.394 0 0 0 .698-1.687V17.362a2.391 2.391 0 0 0-4.78 0v46.176l-80.159 80.171a2.375 2.375 0 0 0-.698 1.685v86.104c0 .578.206 1.129.583 1.567l23.636 27.321c-1.314 1.634-2.13 3.673-2.13 5.928-.004 5.236 4.257 9.501 9.496 9.501zm0-14.225a4.727 4.727 0 0 1 4.721 4.724 4.723 4.723 0 0 1-4.721 4.718 4.723 4.723 0 0 1-4.721-4.718 4.727 4.727 0 0 1 4.721-4.724z"/></g></svg>